<svg xmlns="http://www.w3.org/2000/svg" version="1.1" xmlns:xlink="http://www.w3.org/1999/xlink" viewBox="0 0 200 200"><rect width="200" height="200" fill="url('#gradient')"></rect><defs><linearGradient id="gradient" gradientTransform="rotate(45 0.5 0.5)"><stop offset="0%" stop-color="#7dabaa"></stop><stop offset="100%" stop-color="#f5e8ce"></stop></linearGradient></defs><g><g fill="#2c1f37" transform="matrix(1.8678556951763274,0,0,1.8678556951763274,7.553293725088345,113.82447556324415)" stroke="#15374d" stroke-width="0.2"><path d="M4.73-14.22L4.73 0L1.31 0L1.31-14.22L4.73-14.22ZM6.89-10.57L9.98-10.57L10.09-9.33Q11.18-10.76 13.11-10.76L13.11-10.76Q14.76-10.76 15.57-9.78Q16.39-8.79 16.42-6.81L16.42-6.81L16.42 0L13.12 0L13.12-6.67Q13.12-7.47 12.79-7.85Q12.47-8.22 11.62-8.22L11.62-8.22Q10.65-8.22 10.19-7.46L10.19-7.46L10.19 0L6.89 0L6.89-10.57ZM18.78-13.19L22.07-13.19L22.07-10.57L23.81-10.57L23.81-8.28L22.07-8.28L22.07-3.45Q22.07-2.85 22.29-2.62Q22.50-2.38 23.13-2.38L23.13-2.38Q23.62-2.38 23.96-2.44L23.96-2.44L23.96-0.09Q23.07 0.20 22.10 0.20L22.10 0.20Q20.40 0.20 19.59-0.61Q18.78-1.41 18.78-3.04L18.78-3.04L18.78-8.28L17.43-8.28L17.43-10.57L18.78-10.57L18.78-13.19ZM30.21 0.20L30.21 0.20Q27.78 0.20 26.28-1.25Q24.78-2.71 24.78-5.03L24.78-5.03L24.78-5.30Q24.78-6.92 25.38-8.16Q25.98-9.40 27.13-10.08Q28.28-10.76 29.86-10.76L29.86-10.76Q32.09-10.76 33.38-9.38Q34.67-8.00 34.67-5.53L34.67-5.53L34.67-4.25L28.13-4.25Q28.30-3.36 28.90-2.85Q29.49-2.34 30.44-2.34L30.44-2.34Q32.00-2.34 32.88-3.44L32.88-3.44L34.38-1.66Q33.77-0.81 32.64-0.31Q31.51 0.20 30.21 0.20ZM29.84-8.22L29.84-8.22Q28.40-8.22 28.13-6.31L28.13-6.31L31.45-6.31L31.45-6.56Q31.46-7.35 31.04-7.79Q30.63-8.22 29.84-8.22ZM42.44-10.64L42.38-7.59L41.30-7.67Q39.75-7.67 39.31-6.69L39.31-6.69L39.31 0L36.02 0L36.02-10.57L39.10-10.57L39.21-9.21Q40.04-10.76 41.52-10.76L41.52-10.76Q42.05-10.76 42.44-10.64L42.44-10.64ZM43.59-10.57L46.68-10.57L46.79-9.33Q47.91-10.76 49.80-10.76L49.80-10.76Q51.81-10.76 52.51-9.17L52.51-9.17Q53.58-10.76 55.62-10.76L55.62-10.76Q58.83-10.76 58.92-6.88L58.92-6.88L58.92 0L55.62 0L55.62-6.67Q55.62-7.48 55.34-7.85Q55.07-8.22 54.35-8.22L54.35-8.22Q53.37-8.22 52.89-7.35L52.89-7.35L52.90-7.22L52.90 0L49.60 0L49.60-6.65Q49.60-7.48 49.34-7.85Q49.07-8.22 48.33-8.22L48.33-8.22Q47.38-8.22 46.88-7.35L46.88-7.35L46.88 0L43.59 0L43.59-10.57ZM65.91 0.20L65.91 0.20Q63.48 0.20 61.97-1.25Q60.47-2.71 60.47-5.03L60.47-5.03L60.47-5.30Q60.47-6.92 61.07-8.16Q61.67-9.40 62.82-10.08Q63.97-10.76 65.56-10.76L65.56-10.76Q67.78-10.76 69.07-9.38Q70.36-8.00 70.36-5.53L70.36-5.53L70.36-4.25L63.82-4.25Q63.99-3.36 64.59-2.85Q65.19-2.34 66.13-2.34L66.13-2.34Q67.70-2.34 68.57-3.44L68.57-3.44L70.08-1.66Q69.46-0.81 68.33-0.31Q67.21 0.20 65.91 0.20ZM65.54-8.22L65.54-8.22Q64.09-8.22 63.82-6.31L63.82-6.31L67.14-6.31L67.14-6.56Q67.16-7.35 66.74-7.79Q66.32-8.22 65.54-8.22ZM71.27-5.36L71.27-5.36Q71.27-7.87 72.35-9.32Q73.44-10.76 75.38-10.76L75.38-10.76Q76.80-10.76 77.76-9.65L77.76-9.65L77.76-15L81.06-15L81.06 0L78.11 0L77.94-1.13Q76.92 0.20 75.36 0.20L75.36 0.20Q73.48 0.20 72.37-1.25Q71.27-2.70 71.27-5.36ZM74.57-5.76L74.56-5.16Q74.56-2.34 76.20-2.34L76.20-2.34Q77.29-2.34 77.76-3.26L77.76-3.26L77.76-7.29Q77.31-8.22 76.22-8.22L76.22-8.22Q74.70-8.22 74.57-5.76L74.57-5.76ZM86.41-10.57L86.41 0L83.11 0L83.11-10.57L86.41-10.57ZM82.91-13.29L82.91-13.29Q82.91-13.99 83.42-14.44Q83.93-14.89 84.74-14.89Q85.55-14.89 86.05-14.44Q86.56-13.99 86.56-13.29Q86.56-12.59 86.05-12.14Q85.55-11.69 84.74-11.69Q83.93-11.69 83.42-12.14Q82.91-12.59 82.91-13.29ZM97.68 0L94.38 0Q94.21-0.32 94.07-0.95L94.07-0.95Q93.16 0.20 91.53 0.20L91.53 0.20Q90.04 0.20 88.99-0.71Q87.95-1.61 87.95-2.98L87.95-2.98Q87.95-4.70 89.22-5.58Q90.49-6.46 92.91-6.46L92.91-6.46L93.93-6.46L93.93-7.01Q93.93-8.47 92.67-8.47L92.67-8.47Q91.49-8.47 91.49-7.31L91.49-7.31L88.20-7.31Q88.20-8.85 89.51-9.80Q90.81-10.76 92.83-10.76Q94.85-10.76 96.03-9.78Q97.20-8.79 97.23-7.07L97.23-7.07L97.23-2.39Q97.25-0.94 97.68-0.17L97.68-0.17L97.68 0ZM92.32-2.15L92.32-2.15Q92.94-2.15 93.34-2.41Q93.75-2.68 93.93-3.01L93.93-3.01L93.93-4.70L92.97-4.70Q91.25-4.70 91.25-3.15L91.25-3.15Q91.25-2.71 91.55-2.43Q91.86-2.15 92.32-2.15Z"></path></g></g></svg>